<svg xmlns="http://www.w3.org/2000/svg" xmlns:xlink="http://www.w3.org/1999/xlink" version="1.1" x="0px" y="0px" viewBox="0 0 100 125" style="enable-background:new 0 0 100 100;" xml:space="preserve"><path d="M91.3,15.1H69.3v-4.8c0-3.4-3.1-5.9-7-5.9H37.6c-3.9,0-7,2.6-7,5.9v4.8H8.7c-2.2,0-3.9,1.7-3.9,3.9s1.7,3.9,3.9,3.9h4.8  l4.8,60.1c0.1,7.1,5.8,12.8,12.9,12.8h37.5c7.1,0,12.8-5.7,12.9-12.8l4.9-60h4.8c2.2,0,3.9-1.7,3.9-3.9S93.5,15.1,91.3,15.1z   M38.4,12.1h23.2v3H38.4V12.1z M39.9,74.9h-0.1c-2.1,0-3.7-1.7-3.9-3.7l-1.4-31.5c-0.1-2.2,1.5-4,3.7-4h0.1c2.1,0,3.7,1.7,3.9,3.7  l1.4,31.5C43.7,73,42.1,74.8,39.9,74.9z M64.1,71.1c-0.1,2.1-1.8,3.7-3.9,3.7h-0.1c-2.2-0.1-3.7-1.9-3.7-4l1.4-31.5  c0.1-2.1,1.8-3.7,3.9-3.7h0.1c2.2,0.1,3.7,1.9,3.7,4L64.1,71.1z"/><text x="0" y="115" fill="#000000" font-size="5px" font-weight="bold" font-family="'Helvetica Neue', Helvetica, Arial-Unicode, Arial, Sans-serif">Created by Focus</text><text x="0" y="120" fill="#000000" font-size="5px" font-weight="bold" font-family="'Helvetica Neue', Helvetica, Arial-Unicode, Arial, Sans-serif">from the Noun Project</text></svg>