<svg xmlns="http://www.w3.org/2000/svg" xmlns:xlink="http://www.w3.org/1999/xlink" version="1.1" x="0px" y="0px" viewBox="0 0 100 124.99625" enable-background="new 0 0 100 99.997" xml:space="preserve"><path fill="#000000" d="M78.9962,16.3577c-1.9779-1.9833-4.7433-3.219-7.766-3.2174H32.7934L17.7865,28.1491v47.7235  c-0.0018,3.0236,1.234,5.7889,3.2155,7.766c1.9797,1.9842,4.745,3.219,7.7694,3.2181h42.4589  c3.0227,0.0009,5.788-1.234,7.766-3.2181c1.9815-1.977,3.219-4.7415,3.2172-7.766V24.1244  C82.2152,21.101,80.9777,18.3356,78.9962,16.3577z M35.3501,19.8296v4.904c0,2.8123-2.2891,5.0998-5.0996,5.0998h-4.9033  L35.3501,19.8296z M76.0449,75.8726c0,1.3384-0.5336,2.5229-1.4096,3.405c-0.883,0.876-2.0666,1.4096-3.405,1.4114H28.7713  c-1.3418-0.0018-2.5254-0.5354-3.4048-1.4105c-0.8761-0.883-1.4096-2.0675-1.4114-3.4059V35.7499h7.3801  c5.1587,0,9.3406-4.181,9.3406-9.3417V19.309h30.5545c1.3384,0.0009,2.522,0.5345,3.405,1.4112  c0.876,0.8796,1.4096,2.065,1.4096,3.4041V75.8726z"/><text x="0" y="114.997" fill="#000000" font-size="5px" font-weight="bold" font-family="'Helvetica Neue', Helvetica, Arial-Unicode, Arial, Sans-serif">Created by Maciej Świerczek</text><text x="0" y="119.997" fill="#000000" font-size="5px" font-weight="bold" font-family="'Helvetica Neue', Helvetica, Arial-Unicode, Arial, Sans-serif">from the Noun Project</text></svg>