<svg xmlns="http://www.w3.org/2000/svg" data-name="Layer 1" viewBox="0 0 32 40" x="0px" y="0px"><title>Basic UI flatten</title><path d="M18,28H5a1,1,0,0,1-1-1V5A1,1,0,0,1,5,4H18a1,1,0,0,0,0-2H5A3,3,0,0,0,2,5V27a3,3,0,0,0,3,3H18a1,1,0,0,0,0-2Z"/><path d="M29.71,15.29l-7-7a1,1,0,0,0-1.41,1.41L26.59,15H10a1,1,0,0,0,0,2h16.6l-5.29,5.29a1,1,0,1,0,1.41,1.41l7-7A1,1,0,0,0,29.71,15.29Z"/><text x="0" y="47" fill="#000000" font-size="5px" font-weight="bold" font-family="'Helvetica Neue', Helvetica, Arial-Unicode, Arial, Sans-serif">Created by Saepul Nahwan</text><text x="0" y="52" fill="#000000" font-size="5px" font-weight="bold" font-family="'Helvetica Neue', Helvetica, Arial-Unicode, Arial, Sans-serif">from the Noun Project</text></svg>